<svg width="9" height="3" viewBox="0 0 9 3" fill="none" xmlns="http://www.w3.org/2000/svg">
<path d="M0.166973 0.945511C0.0556269 0.991642 5.54778e-08 1.04631 5.36614e-08 1.10945C5.18447e-08 1.17261 0.0556269 1.22728 0.166973 1.27341L4.10447 2.90564C4.21582 2.95177 4.3476 2.97485 4.49995 2.97485C4.6523 2.97485 4.78418 2.95177 4.89544 2.90564L8.83294 1.27341C8.94428 1.22729 9.00003 1.17262 9.00003 1.10945C9.00003 1.04631 8.94428 0.991643 8.83294 0.945511C8.72168 0.899354 8.5898 0.876256 8.43745 0.876256L0.562456 0.876256C0.410105 0.876269 0.27835 0.899354 0.166973 0.945511Z" fill="#A5A5A5"/>
</svg>
