<svg width="13" height="13" viewBox="0 0 13 13" fill="none" xmlns="http://www.w3.org/2000/svg">
<path d="M6.45298 7.00476C6.46644 7.00476 6.4799 7.00476 6.49606 7.00476C6.50144 7.00476 6.50682 7.00476 6.51221 7.00476C6.52029 7.00476 6.53105 7.00476 6.53913 7.00476C7.3279 6.9913 7.96592 6.71402 8.43704 6.18368C9.47348 5.01532 9.30119 3.01243 9.28234 2.82129C9.21504 1.38642 8.53664 0.699938 7.97669 0.379582C7.55942 0.139988 7.07216 0.0107683 6.52836 0H6.50952C6.50682 0 6.50144 0 6.49875 0H6.4826C6.18378 0 5.59691 0.0484572 5.03427 0.368813C4.46893 0.68917 3.77976 1.37565 3.71246 2.82129C3.69362 3.01243 3.52132 5.01532 4.55777 6.18368C5.02619 6.71402 5.66421 6.9913 6.45298 7.00476ZM4.43124 2.88859C4.43124 2.88051 4.43393 2.87244 4.43393 2.86705C4.52277 0.93684 5.89303 0.729551 6.4799 0.729551H6.49067C6.49606 0.729551 6.50413 0.729551 6.51221 0.729551C7.23907 0.745703 8.47472 1.04183 8.55818 2.86705C8.55818 2.87513 8.55818 2.88321 8.56087 2.88859C8.56356 2.90743 8.75201 4.73804 7.89593 5.7018C7.55673 6.08408 7.10446 6.27252 6.50952 6.2779C6.50413 6.2779 6.50144 6.2779 6.49606 6.2779C6.49067 6.2779 6.48798 6.2779 6.4826 6.2779C5.89034 6.27252 5.43538 6.08408 5.09887 5.7018C4.24549 4.74343 4.42855 2.90474 4.43124 2.88859Z" fill="black"/>
<path d="M12.0281 10.3268C12.0281 10.3241 12.0281 10.3214 12.0281 10.3187C12.0281 10.2971 12.0254 10.2756 12.0254 10.2514C12.0092 9.71834 11.9742 8.47191 10.8059 8.07349C10.7978 8.0708 10.787 8.0681 10.7789 8.06541C9.56482 7.75582 8.5553 7.05589 8.54453 7.04781C8.38031 6.93205 8.15418 6.97243 8.03842 7.13665C7.92266 7.30086 7.96304 7.527 8.12726 7.64276C8.17302 7.67506 9.24447 8.42077 10.5851 8.76535C11.2124 8.98879 11.2824 9.65912 11.3012 10.2729C11.3012 10.2971 11.3012 10.3187 11.3039 10.3402C11.3066 10.5825 11.2904 10.9567 11.2474 11.1721C10.8112 11.4197 9.10179 12.2758 6.50125 12.2758C3.91148 12.2758 2.19125 11.417 1.75244 11.1694C1.70937 10.954 1.69052 10.5798 1.69591 10.3375C1.69591 10.316 1.6986 10.2944 1.6986 10.2702C1.71744 9.65642 1.78744 8.9861 2.41469 8.76266C3.75534 8.41807 4.82678 7.66968 4.87255 7.64006C5.03676 7.52431 5.07715 7.29817 4.96139 7.13396C4.84563 6.96974 4.61949 6.92936 4.45528 7.04512C4.44451 7.05319 3.44037 7.75313 2.22086 8.06272C2.21009 8.06541 2.20202 8.0681 2.19394 8.0708C1.02558 8.47191 0.990586 9.71834 0.974433 10.2487C0.974433 10.2729 0.974433 10.2944 0.971741 10.316C0.971741 10.3187 0.971741 10.3214 0.971741 10.3241C0.969049 10.464 0.966357 11.1828 1.10904 11.5436C1.13596 11.6136 1.18441 11.6728 1.24902 11.7132C1.32979 11.767 3.26538 13 6.50394 13C9.7425 13 11.6781 11.7643 11.7589 11.7132C11.8208 11.6728 11.8719 11.6136 11.8988 11.5436C12.0334 11.1855 12.0308 10.4667 12.0281 10.3268Z" fill="black"/>
</svg>
